<svg width="40" height="40" viewBox="0 0 40 40" fill="none" xmlns="http://www.w3.org/2000/svg">
<path d="M20.0002 36.6666C29.0352 36.6666 36.6668 29.0349 36.6668 19.9999C36.6668 10.9649 29.0352 3.33325 20.0002 3.33325C10.9652 3.33325 3.3335 10.9649 3.3335 19.9999C3.3335 29.0349 10.9652 36.6666 20.0002 36.6666ZM20.0002 6.66659C27.2285 6.66659 33.3335 12.7716 33.3335 19.9999C33.3335 27.2283 27.2285 33.3333 20.0002 33.3333C12.7718 33.3333 6.66683 27.2283 6.66683 19.9999C6.66683 12.7716 12.7718 6.66659 20.0002 6.66659Z" fill="#3B8EA8"/>
<path d="M19.9998 28.3334C21.5015 28.3334 24.3015 28.0534 26.1782 26.1801L23.8215 23.8201C23.0832 24.5584 21.6532 25.0001 19.9998 25.0001C17.2898 25.0001 14.9998 22.7101 14.9998 20.0001C14.9998 17.2901 17.2898 15.0001 19.9998 15.0001C21.6548 15.0001 23.0848 15.4417 23.8215 16.1784L26.1782 13.8217C24.3032 11.9467 21.5015 11.6667 19.9998 11.6667C15.4048 11.6667 11.6665 15.4051 11.6665 20.0001C11.6665 24.5951 15.4048 28.3334 19.9998 28.3334Z" fill="#3B8EA8"/>
</svg>
