<svg width="100" height="100" viewBox="0 0 100 100" fill="none" xmlns="http://www.w3.org/2000/svg">
<g clip-path="url(#clip0_221_184)">
<path d="M81.8043 33.3209C81.8585 34.05 81.8585 34.775 81.8585 35.5C81.8585 57.6875 64.971 83.2542 34.1085 83.2542C24.6002 83.2542 15.7668 80.5 8.3335 75.7167C9.6835 75.8709 10.9835 75.925 12.3877 75.925C19.9418 75.9433 27.282 73.4173 33.2252 68.7542C29.7228 68.6908 26.3276 67.5353 23.5137 65.4489C20.6997 63.3626 18.6076 60.4496 17.5293 57.1167C18.5668 57.2709 19.6085 57.375 20.7002 57.375C22.2043 57.375 23.7168 57.1667 25.121 56.8042C21.32 56.0367 17.9021 53.9765 15.4486 50.9737C12.995 47.9709 11.6572 44.2111 11.6627 40.3334V40.125C13.9002 41.3709 16.496 42.15 19.246 42.2542C16.9422 40.7233 15.0532 38.6459 13.7474 36.2075C12.4417 33.769 11.7598 31.0452 11.7627 28.2792C11.7627 25.1625 12.5918 22.3042 14.046 19.8125C18.2632 25.0001 23.5231 29.244 29.4849 32.2694C35.4467 35.2948 41.9775 37.0342 48.6543 37.375C48.396 36.125 48.2377 34.8292 48.2377 33.5292C48.2366 31.3249 48.6699 29.1419 49.513 27.1052C50.356 25.0684 51.5922 23.2178 53.1509 21.6591C54.7096 20.1004 56.5603 18.8642 58.597 18.0212C60.6337 17.1781 62.8167 16.7448 65.021 16.7459C69.8543 16.7459 74.2168 18.7709 77.2835 22.0459C81.0409 21.3193 84.6441 19.9476 87.9335 17.9917C86.681 21.8701 84.0575 25.1588 80.5543 27.2417C83.8868 26.8616 87.1436 25.9852 90.2168 24.6417C87.9215 27.9879 85.0773 30.9223 81.8043 33.3209Z" fill="#52D1F2"/>
<g filter="url(#filter0_f_221_184)">
<path d="M68.9659 39.2179C68.9983 39.6674 68.9983 40.1143 68.9983 40.5613C68.9983 54.2391 58.8926 70 40.4241 70C34.7342 70 29.4482 68.3022 25 65.3534C25.8079 65.4484 26.5858 65.4818 27.4261 65.4818C31.9466 65.4931 36.339 63.9359 39.8955 61.0613C37.7996 61.0222 35.7679 60.3098 34.084 59.0237C32.4001 57.7375 31.1481 55.9418 30.5029 53.8872C31.1238 53.9822 31.7471 54.0464 32.4004 54.0464C33.3005 54.0464 34.2056 53.918 35.0458 53.6945C32.7713 53.2214 30.726 51.9513 29.2578 50.1002C27.7895 48.2491 26.989 45.9313 26.9922 43.5408V43.4124C28.3312 44.1804 29.8845 44.6608 31.5302 44.725C30.1516 43.7812 29.0211 42.5006 28.2398 40.9974C27.4584 39.4942 27.0503 37.8151 27.0521 36.1099C27.0521 34.1886 27.5482 32.4265 28.4184 30.8905C30.9421 34.0884 34.0896 36.7047 37.6573 38.5697C41.2249 40.4348 45.133 41.5071 49.1285 41.7171C48.9739 40.9466 48.8791 40.1477 48.8791 39.3463C48.8785 37.9874 49.1378 36.6417 49.6423 35.3862C50.1468 34.1306 50.8866 32.9897 51.8193 32.0289C52.7521 31.068 53.8595 30.3059 55.0783 29.7862C56.2971 29.2665 57.6034 28.9993 58.9225 29C61.8148 29 64.4254 30.2483 66.2605 32.2673C68.509 31.8193 70.6652 30.9738 72.6336 29.768C71.8841 32.1589 70.3142 34.1863 68.2178 35.4703C70.212 35.236 72.161 34.6957 74 33.8675C72.6265 35.9303 70.9245 37.7393 68.9659 39.2179Z" fill="#52D1F2"/>
</g>
</g>
<defs>
<filter id="filter0_f_221_184" x="-30" y="-30" width="160" height="160" filterUnits="userSpaceOnUse" color-interpolation-filters="sRGB">
<feFlood flood-opacity="0" result="BackgroundImageFix"/>
<feBlend mode="normal" in="SourceGraphic" in2="BackgroundImageFix" result="shape"/>
<feGaussianBlur stdDeviation="15" result="effect1_foregroundBlur_221_184"/>
</filter>
<clipPath id="clip0_221_184">
<rect width="100" height="100" fill="white"/>
</clipPath>
</defs>
</svg>
