<svg width="100" height="100" viewBox="0 0 100 100" fill="none" xmlns="http://www.w3.org/2000/svg">
<g clip-path="url(#clip0_215_169)">
<path d="M49.9957 30.7375C44.8858 30.7375 39.9853 32.7674 36.3721 36.3806C32.7589 39.9938 30.729 44.8944 30.729 50.0042C30.729 55.1141 32.7589 60.0146 36.3721 63.6278C39.9853 67.241 44.8858 69.2709 49.9957 69.2709C55.1055 69.2709 60.0061 67.241 63.6193 63.6278C67.2325 60.0146 69.2623 55.1141 69.2623 50.0042C69.2623 44.8944 67.2325 39.9938 63.6193 36.3806C60.0061 32.7674 55.1055 30.7375 49.9957 30.7375ZM49.9957 62.5167C46.676 62.5167 43.4924 61.198 41.1451 58.8507C38.7977 56.5033 37.479 53.3197 37.479 50C37.479 46.6804 38.7977 43.4968 41.1451 41.1494C43.4924 38.8021 46.676 37.4834 49.9957 37.4834C53.3153 37.4834 56.499 38.8021 58.8463 41.1494C61.1936 43.4968 62.5123 46.6804 62.5123 50C62.5123 53.3197 61.1936 56.5033 58.8463 58.8507C56.499 61.198 53.3153 62.5167 49.9957 62.5167Z" fill="#52D1F2"/>
<path d="M70.0249 34.5209C72.5055 34.5209 74.5165 32.5099 74.5165 30.0293C74.5165 27.5486 72.5055 25.5376 70.0249 25.5376C67.5442 25.5376 65.5332 27.5486 65.5332 30.0293C65.5332 32.5099 67.5442 34.5209 70.0249 34.5209Z" fill="#52D1F2"/>
<path d="M85.5541 25.4624C84.5896 22.9715 83.1155 20.7094 81.2264 18.821C79.3372 16.9326 77.0746 15.4594 74.5833 14.4958C71.668 13.4014 68.5882 12.8097 65.475 12.7458C61.4625 12.5708 60.1916 12.5208 50.0166 12.5208C39.8416 12.5208 38.5375 12.5208 34.5583 12.7458C31.4474 12.8064 28.3698 13.3983 25.4583 14.4958C22.9664 15.4583 20.7032 16.931 18.8139 18.8196C16.9246 20.7082 15.4509 22.9709 14.4875 25.4624C13.3929 28.3775 12.8025 31.4576 12.7416 34.5708C12.5625 38.5791 12.5083 39.8499 12.5083 50.0291C12.5083 60.2041 12.5083 61.4999 12.7416 65.4874C12.8041 68.6041 13.3916 71.6791 14.4875 74.5999C15.4536 77.0906 16.9287 79.3523 18.8185 81.2406C20.7082 83.129 22.9711 84.6023 25.4625 85.5666C28.3684 86.7049 31.4473 87.339 34.5666 87.4416C38.5791 87.6166 39.85 87.6707 50.025 87.6707C60.2 87.6707 61.5041 87.6707 65.4833 87.4416C68.5962 87.3783 71.6759 86.788 74.5916 85.6957C77.0823 84.7299 79.3442 83.2554 81.2332 81.3665C83.1221 79.4775 84.5966 77.2156 85.5625 74.7249C86.6583 71.8083 87.2458 68.7332 87.3083 65.6166C87.4875 61.6082 87.5416 60.3374 87.5416 50.1582C87.5416 39.9791 87.5416 38.6874 87.3083 34.6999C87.2598 31.5427 86.6664 28.4176 85.5541 25.4624ZM80.4791 65.1791C80.4523 67.5803 80.014 69.9592 79.1833 72.2124C78.5576 73.8327 77.5996 75.3041 76.3711 76.5319C75.1426 77.7597 73.6706 78.7168 72.05 79.3416C69.8217 80.1684 67.4681 80.6068 65.0916 80.6374C61.1333 80.8207 60.0166 80.8666 49.8666 80.8666C39.7083 80.8666 38.6708 80.8666 34.6375 80.6374C32.2622 80.6083 29.9097 80.17 27.6833 79.3416C26.057 78.7207 24.5791 77.7653 23.3453 76.5372C22.1115 75.3092 21.1493 73.8358 20.5208 72.2124C19.7018 69.9835 19.2638 67.6326 19.225 65.2582C19.0458 61.2999 19.0041 60.1833 19.0041 50.0333C19.0041 39.8791 19.0041 38.8416 19.225 34.8041C19.2519 32.4042 19.6902 30.0267 20.5208 27.7749C21.7916 24.4874 24.3958 21.8999 27.6833 20.6416C29.9108 19.8172 32.2626 19.3789 34.6375 19.3458C38.6 19.1666 39.7125 19.1166 49.8666 19.1166C60.0208 19.1166 61.0625 19.1166 65.0916 19.3458C67.4683 19.3743 69.8223 19.8127 72.05 20.6416C73.6705 21.2677 75.1422 22.2258 76.3707 23.4542C77.5991 24.6827 78.5572 26.1544 79.1833 27.7749C80.0023 30.0039 80.4403 32.3548 80.4791 34.7291C80.6583 38.6916 80.7041 39.8041 80.7041 49.9582C80.7041 60.1082 80.7041 61.1999 80.525 65.1833H80.4791V65.1791Z" fill="#52D1F2"/>
<g filter="url(#filter0_f_215_169)">
<path d="M49.9957 30.7375C44.8858 30.7375 39.9853 32.7674 36.3721 36.3806C32.7589 39.9938 30.729 44.8944 30.729 50.0042C30.729 55.1141 32.7589 60.0146 36.3721 63.6278C39.9853 67.241 44.8858 69.2709 49.9957 69.2709C55.1055 69.2709 60.0061 67.241 63.6193 63.6278C67.2325 60.0146 69.2623 55.1141 69.2623 50.0042C69.2623 44.8944 67.2325 39.9938 63.6193 36.3806C60.0061 32.7674 55.1055 30.7375 49.9957 30.7375ZM49.9957 62.5167C46.676 62.5167 43.4924 61.198 41.1451 58.8507C38.7977 56.5033 37.479 53.3197 37.479 50C37.479 46.6804 38.7977 43.4968 41.1451 41.1494C43.4924 38.8021 46.676 37.4834 49.9957 37.4834C53.3153 37.4834 56.499 38.8021 58.8463 41.1494C61.1936 43.4968 62.5123 46.6804 62.5123 50C62.5123 53.3197 61.1936 56.5033 58.8463 58.8507C56.499 61.198 53.3153 62.5167 49.9957 62.5167Z" fill="#52D1F2"/>
<path d="M70.0249 34.5209C72.5055 34.5209 74.5165 32.5099 74.5165 30.0293C74.5165 27.5486 72.5055 25.5376 70.0249 25.5376C67.5442 25.5376 65.5332 27.5486 65.5332 30.0293C65.5332 32.5099 67.5442 34.5209 70.0249 34.5209Z" fill="#52D1F2"/>
<path d="M71.2054 40.1663C70.8197 39.172 70.2303 38.2689 69.475 37.5151C68.7197 36.7612 67.815 36.1731 66.819 35.7884C65.6534 35.3516 64.422 35.1153 63.1773 35.0898C61.573 35.02 61.0649 35 56.9967 35C52.9285 35 52.407 35 50.8161 35.0898C49.5723 35.114 48.3418 35.3503 47.1777 35.7884C46.1814 36.1727 45.2765 36.7606 44.5211 37.5145C43.7657 38.2684 43.1765 39.1717 42.7913 40.1663C42.3537 41.33 42.1176 42.5596 42.0933 43.8024C42.0217 45.4025 42 45.9098 42 49.9734C42 54.0353 42 54.5526 42.0933 56.1444C42.1183 57.3886 42.3532 58.6161 42.7913 59.7821C43.1776 60.7764 43.7674 61.6793 44.5229 62.4331C45.2785 63.1869 46.1832 63.7751 47.1794 64.16C48.3412 64.6144 49.5723 64.8676 50.8194 64.9085C52.4237 64.9784 52.9318 65 57 65C61.0682 65 61.5896 65 63.1806 64.9085C64.4252 64.8832 65.6565 64.6476 66.8223 64.2116C67.8181 63.826 68.7225 63.2374 69.4777 62.4833C70.233 61.7293 70.8225 60.8263 71.2087 59.832C71.6468 58.6677 71.8817 57.4401 71.9067 56.1959C71.9783 54.5958 72 54.0885 72 50.025C72 45.9614 72 45.4458 71.9067 43.854C71.8873 42.5936 71.65 41.3461 71.2054 40.1663ZM69.1763 56.0213C69.1655 56.9799 68.9903 57.9295 68.6582 58.829C68.408 59.4758 68.025 60.0632 67.5338 60.5534C67.0426 61.0435 66.4541 61.4256 65.8061 61.675C64.9152 62.0051 63.9742 62.18 63.024 62.1923C61.4414 62.2655 60.9949 62.2838 56.9367 62.2838C52.8752 62.2838 52.4604 62.2838 50.8477 62.1923C49.898 62.1807 48.9575 62.0057 48.0673 61.675C47.4171 61.4271 46.8262 61.0457 46.3329 60.5555C45.8396 60.0652 45.4549 59.4771 45.2036 58.829C44.8761 57.9392 44.701 57.0007 44.6855 56.0529C44.6138 54.4727 44.5972 54.0269 44.5972 49.9751C44.5972 45.9215 44.5972 45.5073 44.6855 43.8955C44.6962 42.9375 44.8715 41.9884 45.2036 41.0895C45.7117 39.7771 46.7529 38.7442 48.0673 38.2418C48.9579 37.9127 49.8982 37.7378 50.8477 37.7246C52.432 37.653 52.8768 37.6331 56.9367 37.6331C60.9966 37.6331 61.413 37.6331 63.024 37.7246C63.9742 37.736 64.9154 37.911 65.8061 38.2418C66.454 38.4918 67.0424 38.8743 67.5336 39.3647C68.0248 39.8551 68.4078 40.4426 68.6582 41.0895C68.9856 41.9793 69.1607 42.9178 69.1763 43.8656C69.2479 45.4474 69.2662 45.8916 69.2662 49.9451C69.2662 53.997 69.2662 54.4328 69.1946 56.023H69.1763V56.0213Z" fill="#52D1F2"/>
</g>
</g>
<defs>
<filter id="filter0_f_215_169" x="-30" y="-30" width="160" height="160" filterUnits="userSpaceOnUse" color-interpolation-filters="sRGB">
<feFlood flood-opacity="0" result="BackgroundImageFix"/>
<feBlend mode="normal" in="SourceGraphic" in2="BackgroundImageFix" result="shape"/>
<feGaussianBlur stdDeviation="15" result="effect1_foregroundBlur_215_169"/>
</filter>
<clipPath id="clip0_215_169">
<rect width="100" height="100" fill="white"/>
</clipPath>
</defs>
</svg>
